# Blender v2.92.0 OBJ File: ''
# www.blender.org
mtllib bulb.mtl
o Cylinder
v -0.000000 -0.100000 -0.057808
v -0.000000 0.151009 -0.054831
v 0.040877 -0.100000 -0.040877
v 0.038771 0.151009 -0.038771
v 0.057808 -0.100000 0.000000
v 0.054831 0.151009 0.000000
v 0.040877 -0.100000 0.040877
v 0.038771 0.151009 0.038771
v -0.000000 -0.100000 0.057808
v -0.000000 0.151009 0.054831
v -0.040877 -0.100000 0.040877
v -0.038771 0.151009 0.038771
v -0.057808 -0.100000 -0.000000
v -0.054831 0.151009 -0.000000
v -0.040877 -0.100000 -0.040877
v -0.038771 0.151009 -0.038771
v 0.000000 -0.050356 -0.100000
v 0.000000 -0.012661 -0.100000
v -0.000000 0.074596 -0.054831
v 0.038771 0.074596 -0.038771
v 0.070711 -0.012661 -0.070711
v 0.070711 -0.050356 -0.070711
v 0.054831 0.074596 0.000000
v 0.100000 -0.012661 0.000000
v 0.100000 -0.050356 0.000000
v 0.038771 0.074596 0.038771
v 0.070711 -0.012661 0.070711
v 0.070711 -0.050356 0.070711
v -0.000000 0.074596 0.054831
v -0.000000 -0.012661 0.100000
v -0.000000 -0.050356 0.100000
v -0.038771 0.074596 0.038771
v -0.070711 -0.012661 0.070711
v -0.070711 -0.050356 0.070711
v -0.054831 0.074596 -0.000000
v -0.100000 -0.012661 -0.000000
v -0.100000 -0.050356 -0.000000
v -0.038771 0.074596 -0.038771
v -0.070711 -0.012661 -0.070711
v -0.070711 -0.050356 -0.070711
vt 1.000000 0.875000
vt 1.000000 1.000000
vt 0.875000 1.000000
vt 0.875000 0.875000
vt 0.750000 1.000000
vt 0.750000 0.875000
vt 0.625000 1.000000
vt 0.625000 0.875000
vt 0.500000 1.000000
vt 0.500000 0.875000
vt 0.375000 1.000000
vt 0.375000 0.875000
vt 0.250000 1.000000
vt 0.250000 0.875000
vt 0.419706 0.419706
vt 0.250000 0.490000
vt 0.080294 0.419706
vt 0.010000 0.250000
vt 0.080294 0.080294
vt 0.250000 0.010000
vt 0.419706 0.080294
vt 0.490000 0.250000
vt 0.125000 1.000000
vt 0.125000 0.875000
vt 0.000000 1.000000
vt 0.000000 0.875000
vt 0.750000 0.490000
vt 0.919706 0.419706
vt 0.990000 0.250000
vt 0.919706 0.080294
vt 0.750000 0.010000
vt 0.580294 0.080294
vt 0.510000 0.250000
vt 0.580294 0.419706
vt 0.125000 0.500000
vt 0.125000 0.625000
vt 0.000000 0.625000
vt 0.000000 0.500000
vt 0.125000 0.750000
vt 0.000000 0.750000
vt 0.250000 0.500000
vt 0.250000 0.625000
vt 0.250000 0.750000
vt 0.375000 0.500000
vt 0.375000 0.625000
vt 0.375000 0.750000
vt 0.500000 0.500000
vt 0.500000 0.625000
vt 0.500000 0.750000
vt 0.625000 0.500000
vt 0.625000 0.625000
vt 0.625000 0.750000
vt 0.750000 0.500000
vt 0.750000 0.625000
vt 0.750000 0.750000
vt 0.875000 0.500000
vt 0.875000 0.625000
vt 0.875000 0.750000
vt 1.000000 0.500000
vt 1.000000 0.625000
vt 1.000000 0.750000
vn 0.3827 0.0000 -0.9239
vn 0.9239 0.0000 -0.3827
vn 0.9239 0.0000 0.3827
vn 0.3827 0.0000 0.9239
vn -0.3827 0.0000 0.9239
vn -0.9239 0.0000 0.3827
vn 0.0000 1.0000 0.0000
vn -0.9239 0.0000 -0.3827
vn -0.3827 0.0000 -0.9239
vn 0.0000 -1.0000 0.0000
vn -0.3010 -0.6176 -0.7266
vn -0.3452 0.4314 -0.8335
vn -0.7266 -0.6176 -0.3010
vn -0.8335 0.4314 -0.3452
vn -0.7266 -0.6176 0.3010
vn -0.8335 0.4314 0.3452
vn -0.3010 -0.6176 0.7266
vn -0.3452 0.4314 0.8335
vn 0.3010 -0.6176 0.7266
vn 0.3452 0.4314 0.8335
vn 0.7266 -0.6176 0.3010
vn 0.8335 0.4314 0.3452
vn 0.7266 -0.6176 -0.3010
vn 0.8335 0.4314 -0.3452
vn 0.3010 -0.6176 -0.7266
vn 0.3452 0.4314 -0.8335
usemtl None
s off
f 19/1/1 2/2/1 4/3/1 20/4/1
f 20/4/2 4/3/2 6/5/2 23/6/2
f 23/6/3 6/5/3 8/7/3 26/8/3
f 26/8/4 8/7/4 10/9/4 29/10/4
f 29/10/5 10/9/5 12/11/5 32/12/5
f 32/12/6 12/11/6 14/13/6 35/14/6
f 4/15/7 2/16/7 16/17/7 14/18/7 12/19/7 10/20/7 8/21/7 6/22/7
f 35/14/8 14/13/8 16/23/8 38/24/8
f 38/24/9 16/23/9 2/25/9 19/26/9
f 1/27/10 3/28/10 5/29/10 7/30/10 9/31/10 11/32/10 13/33/10 15/34/10
f 15/35/11 40/36/11 17/37/11 1/38/11
f 40/36/9 39/39/9 18/40/9 17/37/9
f 39/39/12 38/24/12 19/26/12 18/40/12
f 13/41/13 37/42/13 40/36/13 15/35/13
f 37/42/8 36/43/8 39/39/8 40/36/8
f 36/43/14 35/14/14 38/24/14 39/39/14
f 11/44/15 34/45/15 37/42/15 13/41/15
f 34/45/6 33/46/6 36/43/6 37/42/6
f 33/46/16 32/12/16 35/14/16 36/43/16
f 9/47/17 31/48/17 34/45/17 11/44/17
f 31/48/5 30/49/5 33/46/5 34/45/5
f 30/49/18 29/10/18 32/12/18 33/46/18
f 7/50/19 28/51/19 31/48/19 9/47/19
f 28/51/4 27/52/4 30/49/4 31/48/4
f 27/52/20 26/8/20 29/10/20 30/49/20
f 5/53/21 25/54/21 28/51/21 7/50/21
f 25/54/3 24/55/3 27/52/3 28/51/3
f 24/55/22 23/6/22 26/8/22 27/52/22
f 3/56/23 22/57/23 25/54/23 5/53/23
f 22/57/2 21/58/2 24/55/2 25/54/2
f 21/58/24 20/4/24 23/6/24 24/55/24
f 1/59/25 17/60/25 22/57/25 3/56/25
f 17/60/1 18/61/1 21/58/1 22/57/1
f 18/61/26 19/1/26 20/4/26 21/58/26
