# Blender v2.92.0 OBJ File: ''
# www.blender.org
mtllib laptop.mtl
o Cube
v 0.288737 0.014533 -0.168881
v 0.288737 -0.014533 -0.168881
v 0.288737 0.014533 0.248730
v 0.288737 -0.014533 0.248730
v -0.380823 0.014533 -0.168881
v -0.380823 -0.014533 -0.168881
v -0.380823 0.014533 0.248730
v -0.380823 -0.014533 0.248730
vt 0.074846 0.392629
vt 0.074846 0.184114
vt 0.180032 0.184114
vt 0.180032 0.392629
vt 0.189084 0.392629
vt 0.189084 0.184114
vt 0.294270 0.078929
vt 0.303322 0.078929
vt 0.303322 0.184114
vt 0.294270 0.184114
vt 0.294270 0.392629
vt 0.303322 0.392629
vt 0.303322 0.497817
vt 0.294270 0.497816
vn 0.0000 1.0000 0.0000
vn 0.0000 0.0000 1.0000
vn -1.0000 0.0000 0.0000
vn 0.0000 -1.0000 0.0000
vn 1.0000 0.0000 0.0000
vn 0.0000 0.0000 -1.0000
usemtl Material
s off
f 1/1/1 5/2/1 7/3/1 3/4/1
f 4/5/2 3/4/2 7/3/2 8/6/2
f 8/7/3 7/8/3 5/9/3 6/10/3
f 6/10/4 2/11/4 4/5/4 8/6/4
f 2/11/5 1/12/5 3/13/5 4/14/5
f 6/10/6 5/9/6 1/12/6 2/11/6
o Cube.001
v 0.286644 0.405088 -0.207342
v 0.286644 0.401796 -0.236221
v 0.286644 0.001122 -0.161288
v 0.286644 -0.002171 -0.190167
v -0.378840 0.405088 -0.207342
v -0.378840 0.401796 -0.236221
v -0.378840 0.001122 -0.161288
v -0.378840 -0.002171 -0.190167
vt 0.053746 0.919810
vt 0.053746 0.587051
vt 0.231380 0.587051
vt 0.231380 0.919810
vt 0.244079 0.919810
vt 0.244078 0.587051
vt 0.231380 0.574352
vt 0.053746 0.574352
vt 0.421713 0.587051
vt 0.421713 0.919810
vt 0.053746 0.932509
vt 0.231380 0.932509
vt 0.434411 0.587051
vt 0.434411 0.919810
vn 0.0000 0.1133 0.9936
vn 0.0000 -0.9936 0.1133
vn -1.0000 0.0000 0.0000
vn 0.0000 -0.1133 -0.9936
vn 1.0000 0.0000 0.0000
vn 0.0000 0.9936 -0.1133
usemtl Material
s off
f 9/15/7 13/16/7 15/17/7 11/18/7
f 12/19/8 11/18/8 15/17/8 16/20/8
f 16/21/9 15/17/9 13/16/9 14/22/9
f 14/23/10 10/24/10 12/19/10 16/20/10
f 10/25/11 9/15/11 11/18/11 12/26/11
f 14/23/12 13/27/12 9/28/12 10/24/12
o Sphere
v 0.379634 0.021762 -0.091677
v 0.370343 -0.000000 -0.112479
v 0.379634 -0.021762 -0.091677
v 0.406466 0.021762 -0.086018
v 0.408289 -0.000000 -0.104476
v 0.406466 -0.021762 -0.086018
v 0.430720 0.021762 -0.054256
v 0.442589 -0.000000 -0.059557
v 0.430720 -0.021762 -0.054256
v 0.438188 0.021762 -0.014996
v 0.453151 -0.000000 -0.004036
v 0.438188 -0.021762 -0.014996
v 0.402065 -0.030776 -0.041457
v 0.424497 0.021762 0.008763
v 0.433788 -0.000000 0.029565
v 0.424497 -0.021762 0.008763
v 0.402065 0.030776 -0.041457
v 0.397665 0.021762 0.003104
v 0.395842 -0.000000 0.021562
v 0.397665 -0.021762 0.003104
v 0.373411 0.021762 -0.028658
v 0.361542 -0.000000 -0.023357
v 0.373411 -0.021762 -0.028658
v 0.365942 0.021762 -0.067918
v 0.350980 -0.000000 -0.078879
v 0.365942 -0.021762 -0.067918
vt 0.784276 0.816146
vt 0.776610 0.843328
vt 0.750330 0.820571
vt 0.765719 0.801393
vt 0.821802 0.719352
vt 0.834632 0.766899
vt 0.807729 0.738429
vt 0.784276 0.766899
vt 0.807319 0.695105
vt 0.787875 0.723922
vt 0.756106 0.770632
vt 0.806462 0.770632
vt 0.784345 0.773564
vt 0.733989 0.773564
vt 0.816075 0.801393
vt 0.757374 0.738429
vt 0.800685 0.820571
vt 0.737519 0.723922
vt 0.756964 0.695105
vt 0.771447 0.719352
vt 0.834632 0.816146
vt 0.826966 0.843328
vt 0.884988 0.816146
vt 0.877321 0.843328
vt 0.851041 0.820571
vt 0.866431 0.801393
vt 0.922514 0.719352
vt 0.935344 0.766899
vt 0.908441 0.738429
vt 0.884988 0.766899
vt 0.908031 0.695105
vt 0.888587 0.723922
vt 0.834701 0.773564
vt 0.856818 0.770632
vt 0.907174 0.770632
vt 0.885057 0.773564
vt 0.838231 0.723922
vt 0.858085 0.738429
vt 0.916786 0.801393
vt 0.901397 0.820571
vt 0.857675 0.695105
vt 0.872158 0.719352
vt 0.935344 0.816146
vt 0.927677 0.843328
vn 0.1575 -0.6464 -0.7466
vn 0.0410 0.9801 -0.1942
vn 0.0410 -0.9801 -0.1942
vn 0.1575 0.6464 -0.7466
vn 0.2250 -0.9591 -0.1718
vn 0.6871 0.5026 -0.5247
vn 0.6871 -0.5026 -0.5247
vn 0.2250 0.9591 -0.1718
vn 0.2781 0.9591 -0.0529
vn 0.2781 -0.9591 -0.0529
vn 0.8493 0.5026 -0.1616
vn 0.8493 -0.5026 -0.1616
vn 0.6611 -0.6464 0.3810
vn 0.1720 0.9801 0.0991
vn 0.1720 -0.9801 0.0991
vn 0.6611 0.6464 0.3810
vn -0.1575 -0.6464 0.7466
vn -0.0410 0.9801 0.1942
vn -0.0410 -0.9801 0.1942
vn -0.1575 0.6464 0.7466
vn -0.6871 -0.5026 0.5247
vn -0.2250 0.9591 0.1718
vn -0.2250 -0.9591 0.1718
vn -0.6871 0.5026 0.5247
vn -0.8493 -0.5026 0.1616
vn -0.2781 0.9591 0.0529
vn -0.2781 -0.9591 0.0529
vn -0.8493 0.5026 0.1616
vn -0.6611 -0.6464 -0.3810
vn -0.1720 0.9801 -0.0991
vn -0.1720 -0.9801 -0.0991
vn -0.6611 0.6464 -0.3810
usemtl Material
s off
f 19/29/13 18/30/13 21/31/13 22/32/13
f 17/33/14 33/34/14 20/35/14
f 29/36/15 19/29/15 22/32/15
f 18/37/16 17/33/16 20/35/16 21/38/16
f 29/36/17 22/32/17 25/39/17
f 21/38/18 20/35/18 23/40/18 24/41/18
f 22/32/19 21/31/19 24/42/19 25/39/19
f 20/35/20 33/34/20 23/40/20
f 23/40/21 33/34/21 26/43/21
f 29/36/22 25/39/22 28/44/22
f 24/41/23 23/40/23 26/43/23 27/45/23
f 25/39/24 24/42/24 27/46/24 28/44/24
f 28/44/25 27/46/25 31/47/25 32/48/25
f 26/43/26 33/34/26 30/49/26
f 29/36/27 28/44/27 32/48/27
f 27/45/28 26/43/28 30/49/28 31/50/28
f 32/51/29 31/52/29 35/53/29 36/54/29
f 30/55/30 33/56/30 34/57/30
f 29/58/31 32/51/31 36/54/31
f 31/59/32 30/55/32 34/57/32 35/60/32
f 36/54/33 35/53/33 38/61/33 39/62/33
f 34/57/34 33/56/34 37/63/34
f 29/58/35 36/54/35 39/62/35
f 35/60/36 34/57/36 37/63/36 38/64/36
f 39/62/37 38/61/37 41/65/37 42/66/37
f 37/63/38 33/56/38 40/67/38
f 29/58/39 39/62/39 42/66/39
f 38/64/40 37/63/40 40/67/40 41/68/40
f 42/66/41 41/65/41 18/69/41 19/70/41
f 40/67/42 33/56/42 17/71/42
f 29/58/43 42/66/43 19/70/43
f 41/68/44 40/67/44 17/71/44 18/72/44
